<svg width="45" height="48" viewBox="0 0 45 48" fill="none" xmlns="http://www.w3.org/2000/svg">
<path d="M7 0.666504L0 14.6665H4.66667V23.9998L11.6667 9.99984H7V0.666504ZM32.6667 5.33317C31.3684 5.33317 30.1397 5.5978 28.9707 5.99398C28.72 6.07734 28.4644 6.13019 28.2187 6.23096C27.9115 6.35888 27.6327 6.53384 27.3392 6.68669C26.2934 7.22403 25.2912 7.87786 24.418 8.75114C22.3043 10.8648 17.4757 16.8139 12.8743 22.5369C10.5737 25.3985 8.38158 28.1558 6.74935 30.216C5.93323 31.2461 5.25908 32.1054 4.7806 32.7134C4.54136 33.0174 4.35019 33.2566 4.21549 33.4289C4.08548 33.5951 4.15364 33.4841 3.9375 33.7889V33.7935C2.8676 35.2822 2.36568 37.0416 2.36979 38.7974C2.364 38.9224 2.33333 39.0401 2.33333 39.1665C2.33333 43.6492 6.01731 47.3332 10.5 47.3332C10.6264 47.3332 10.7441 47.3025 10.8691 47.2967C12.6273 47.3012 14.3872 46.7982 15.8776 45.7244H15.8822C16.1545 45.5272 16.066 45.5855 16.2376 45.451C16.4093 45.3165 16.6539 45.1252 16.9577 44.8859C17.5653 44.4073 18.4206 43.7334 19.4505 42.9172C21.5103 41.2846 24.2638 39.0882 27.125 36.7876C32.8473 32.1863 38.7971 27.3622 40.9108 25.2485C41.7914 24.3696 42.4496 23.3633 42.9889 22.3091C43.1362 22.0251 43.3116 21.7582 43.4355 21.4614C43.5448 21.1959 43.6019 20.9171 43.6908 20.6457C44.0761 19.4911 44.3333 18.2795 44.3333 16.9998C44.3333 15.7016 44.0687 14.4729 43.6725 13.3039C43.5888 13.0519 43.5369 12.7942 43.4355 12.5474C43.3154 12.2592 43.1492 11.9986 43.0072 11.7225C42.4666 10.657 41.8037 9.6384 40.9154 8.75114C40.042 7.87782 39.0399 7.22405 37.9941 6.68669C37.7006 6.53384 37.4218 6.35888 37.1146 6.23096C36.869 6.13019 36.6134 6.07734 36.3626 5.99398C35.1936 5.5978 33.9649 5.33317 32.6667 5.33317ZM32.6667 9.99984C33.6233 9.99984 34.5283 10.1924 35.3555 10.533C35.6495 10.6569 35.9286 10.8181 36.2077 10.9842C36.3113 11.0449 36.4266 11.087 36.5267 11.1528C36.9109 11.4094 37.2753 11.71 37.6159 12.0506C38.2875 12.7214 38.7893 13.4921 39.1335 14.311C39.4741 15.1382 39.6667 16.0432 39.6667 16.9998C39.6667 17.9564 39.4741 18.8615 39.1335 19.6886C38.7894 20.5077 38.288 21.2782 37.6159 21.9491H37.6113C37.5438 22.0166 37.217 22.2843 37.1283 22.3683C35.9175 23.3732 34.3796 23.9998 32.6667 23.9998C28.773 23.9998 25.6667 20.8935 25.6667 16.9998C25.6667 15.2422 26.323 13.666 27.3757 12.4425C27.4414 12.3736 27.6626 12.1054 27.7174 12.0506C28.0581 11.71 28.4225 11.4094 28.8066 11.1528C28.9067 11.087 29.022 11.0449 29.1257 10.9842C29.4047 10.8181 29.6838 10.6569 29.9779 10.533C30.805 10.1924 31.7101 9.99984 32.6667 9.99984ZM21.3145 19.5838C22.3104 23.9261 25.7364 27.3545 30.0781 28.352C28.1575 29.9317 26.2188 31.5306 24.2038 33.1509C22.0856 34.854 20.2787 36.2888 18.5163 37.6899C17.9008 34.385 15.2775 31.7639 11.972 31.1502C13.3721 29.3875 14.8074 27.5817 16.5111 25.4627C18.1327 23.4458 19.7329 21.5066 21.3145 19.5838ZM10.5 35.6665C12.4606 35.6665 14 37.2059 14 39.1665C14 40.8821 12.8236 42.2767 11.2155 42.5981C11.0107 42.6391 10.7947 42.6528 10.5775 42.6574C9.6937 42.5868 8.82565 42.2135 8.13932 41.5272C7.44792 40.8358 7.07497 39.962 7.00911 39.0708V39.0617C7.01519 38.8506 7.03249 38.6411 7.07292 38.4419C7.39816 36.8389 8.78803 35.6665 10.5 35.6665Z" fill="#757575"/>
</svg>
