<svg width="56" height="56" viewBox="0 0 56 56" fill="none" xmlns="http://www.w3.org/2000/svg">
<path d="M23.3333 4.6665V9.33317H30.3333V13.9998H35V9.33317H42V4.6665H23.3333ZM23.3333 18.6665C22.7145 18.6666 22.1211 18.9125 21.6836 19.3501L17.7005 23.3332H11.6667C11.0478 23.3332 10.4544 23.5791 10.0168 24.0167C9.57925 24.4542 9.3334 25.0477 9.33333 25.6665V39.6665C9.3334 40.2853 9.57925 40.8788 10.0168 41.3163C10.4544 41.7539 11.0478 41.9998 11.6667 41.9998H15.627L22.0391 46.2746C22.4223 46.5301 22.8727 46.6665 23.3333 46.6665H35C35.5043 46.6668 35.9952 46.5037 36.3991 46.2017L45.7324 39.2017C46.0226 38.9842 46.2581 38.7021 46.4203 38.3778C46.5825 38.0535 46.6668 37.6958 46.6667 37.3332V20.9998C46.6666 20.381 46.4207 19.7876 45.9832 19.35C45.5456 18.9124 44.9522 18.6666 44.3333 18.6665H23.3333ZM51.3333 20.9998V34.9998H56V20.9998H51.3333ZM24.2995 23.3332H30.3333H42V36.1665L34.2207 41.9998H28H24.0397L17.6276 37.7251C17.2443 37.4696 16.794 37.3332 16.3333 37.3332H14V27.9998H18.6667C19.2855 27.9997 19.8789 27.7538 20.3164 27.3162L24.2995 23.3332ZM28 41.9998L35 30.3332H30.3333V23.3332L23.3333 34.9998H28V41.9998ZM0 25.6665V37.3332H4.66667V25.6665H0Z" fill="white"/>
</svg>
