<svg width="30" height="30" viewBox="0 0 30 30" fill="none" xmlns="http://www.w3.org/2000/svg">
<path d="M15 0C6.75 0 0 6.75 0 15C0 23.25 6.75 30 15 30C23.25 30 30 23.25 30 15C30 6.75 23.25 0 15 0ZM15 3C21.0909 3 26.1488 7.60295 26.8945 13.5H20.7832C20.1084 10.9263 17.7755 9 15 9C12.2245 9 9.89161 10.9263 9.2168 13.5H3.10547C3.85117 7.60295 8.90906 3 15 3ZM15 12C16.6746 12 18 13.3254 18 15C18 16.6746 16.6746 18 15 18C13.3254 18 12 16.6746 12 15C12 13.3254 13.3254 12 15 12ZM3.10547 16.5H9.2168C9.76506 18.591 11.409 20.2349 13.5 20.7832V26.8945C8.09581 26.2112 3.78884 21.9042 3.10547 16.5ZM20.7832 16.5H26.8945C26.2112 21.9042 21.9042 26.2112 16.5 26.8945V20.7832C18.591 20.2349 20.2349 18.591 20.7832 16.5Z" fill="white"/>
</svg>
