<svg width="20" height="20" viewBox="0 0 20 20" fill="none" xmlns="http://www.w3.org/2000/svg">
<g clip-path="url(#clip0_105_10481)">
<path d="M18.9535 15.6976C18.9535 16.1293 18.782 16.5434 18.4767 16.8487C18.1714 17.154 17.7573 17.3255 17.3256 17.3255H2.67442C2.24267 17.3255 1.8286 17.154 1.52331 16.8487C1.21802 16.5434 1.04651 16.1293 1.04651 15.6976V6.74408C1.04651 6.31234 1.21802 5.89827 1.52331 5.59298C1.8286 5.28769 2.24267 5.11618 2.67442 5.11618H5.93023L7.55814 2.67432H12.4419L14.0698 5.11618H17.3256C17.7573 5.11618 18.1714 5.28769 18.4767 5.59298C18.782 5.89827 18.9535 6.31234 18.9535 6.74408V15.6976Z" stroke="black" stroke-width="1.62791" stroke-linecap="round" stroke-linejoin="round"/>
<path d="M9.99995 14.0697C11.7981 14.0697 13.2558 12.6121 13.2558 10.8139C13.2558 9.01578 11.7981 7.55811 9.99995 7.55811C8.20182 7.55811 6.74414 9.01578 6.74414 10.8139C6.74414 12.6121 8.20182 14.0697 9.99995 14.0697Z" stroke="black" stroke-width="1.62791" stroke-linecap="round" stroke-linejoin="round"/>
</g>
<defs>
<clipPath id="clip0_105_10481">
<rect width="19.5349" height="19.5349" fill="white" transform="translate(0.232544 0.232666)"/>
</clipPath>
</defs>
</svg>
