<svg width="54" height="53" viewBox="0 0 54 53" fill="none" xmlns="http://www.w3.org/2000/svg">
<g opacity="0.55">
<path d="M27 4.41675V8.83341C16.0495 8.83341 7.125 17.7579 7.125 28.7084C7.125 39.6589 16.0495 48.5834 27 48.5834C37.9505 48.5834 46.875 39.6589 46.875 28.7084H51.2917C51.2917 15.3711 40.3373 4.41675 27 4.41675ZM27 13.2501V17.6667C33.1755 17.6667 38.0417 22.5329 38.0417 28.7084H42.4583C42.4583 37.272 35.5636 44.1667 27 44.1667C18.4364 44.1667 11.5417 37.272 11.5417 28.7084C11.5417 20.1449 18.4364 13.2501 27 13.2501ZM27 22.0834C23.3408 22.0834 20.375 25.0492 20.375 28.7084C20.375 32.3676 23.3408 35.3334 27 35.3334C30.6592 35.3334 33.625 32.3676 33.625 28.7084C33.625 25.0492 30.6592 22.0834 27 22.0834ZM27 26.5001C28.2168 26.5001 29.2083 27.4916 29.2083 28.7084C29.2083 29.9252 28.2168 30.9167 27 30.9167C25.7832 30.9167 24.7917 29.9252 24.7917 28.7084C24.7917 27.4916 25.7832 26.5001 27 26.5001Z" fill="#01C2FF"/>
</g>
</svg>
