<svg width="41" height="39" viewBox="0 0 41 39" fill="none" xmlns="http://www.w3.org/2000/svg">
<path d="M18.2253 0.833252C16.4511 0.833252 14.7498 1.54572 13.5067 2.80868L2.18901 14.2817C1.3729 15.1081 0.916626 16.2268 0.916626 17.3828V33.0352C0.916626 35.9124 3.23115 38.3749 6.13554 38.3749H35.4477C38.3521 38.3749 40.6666 35.9124 40.6666 33.0352L40.6537 6.17293C40.6537 3.29572 38.3392 0.833252 35.4348 0.833252H18.2253ZM18.2253 5.24992H35.4348C35.8561 5.24992 36.237 5.59631 36.237 6.17293L36.2413 14.0833H8.58541L16.651 5.90552C17.0642 5.48573 17.6322 5.24992 18.2253 5.24992ZM5.33329 18.4999H36.2413L36.25 33.0395C36.2479 33.6134 35.8679 33.9583 35.4477 33.9583H6.13554C5.71418 33.9583 5.33329 33.6119 5.33329 33.0352V18.4999ZM20.7916 22.9166V27.3333H31.8333V22.9166H20.7916Z" fill="#01C2FF"/>
</svg>
