<svg width="54" height="53" viewBox="0 0 54 53" fill="none" xmlns="http://www.w3.org/2000/svg">
<g opacity="0.55">
<path d="M6.02085 8.83325C5.41135 8.83325 4.91669 9.32792 4.91669 9.93742V12.1458C4.91669 12.7553 5.41135 13.2499 6.02085 13.2499H17.0625C17.672 13.2499 18.1667 12.7553 18.1667 12.1458V9.93742C18.1667 9.32792 17.672 8.83325 17.0625 8.83325H6.02085ZM36.9375 8.83325C36.328 8.83325 35.8334 9.32792 35.8334 9.93742V12.1458C35.8334 12.7553 36.328 13.2499 36.9375 13.2499H47.9792C48.5887 13.2499 49.0834 12.7553 49.0834 12.1458V9.93742C49.0834 9.32792 48.5887 8.83325 47.9792 8.83325H36.9375ZM9.33335 17.6666V22.6828C8.66308 23.0698 8.10627 23.6261 7.71869 24.296C7.33112 24.9659 7.12639 25.726 7.12502 26.4999C7.12639 27.2739 7.33112 28.0339 7.71869 28.7038C8.10627 29.3738 8.66308 29.9301 9.33335 30.3171V35.3333H13.75V30.3214C14.4181 29.9336 14.9729 29.3774 15.3588 28.7083H38.6369C39.0247 29.3764 39.5809 29.9311 40.25 30.3171V35.3333H44.6667V30.3214C45.3376 29.934 45.8948 29.377 46.2824 28.7063C46.67 28.0355 46.8744 27.2746 46.875 26.4999C46.8736 25.726 46.6689 24.9659 46.2813 24.296C45.8938 23.6261 45.337 23.0698 44.6667 22.6828V17.6666H40.25V22.6785C39.5819 23.0662 39.0272 23.6224 38.6412 24.2916H15.3588C14.9729 23.6224 14.4181 23.0662 13.75 22.6785V17.6666H9.33335ZM6.02085 39.7499C5.41135 39.7499 4.91669 40.2446 4.91669 40.8541V43.0624C4.91669 43.6719 5.41135 44.1666 6.02085 44.1666H17.0625C17.672 44.1666 18.1667 43.6719 18.1667 43.0624V40.8541C18.1667 40.2446 17.672 39.7499 17.0625 39.7499H6.02085ZM36.9375 39.7499C36.328 39.7499 35.8334 40.2446 35.8334 40.8541V43.0624C35.8334 43.6719 36.328 44.1666 36.9375 44.1666H47.9792C48.5887 44.1666 49.0834 43.6719 49.0834 43.0624V40.8541C49.0834 40.2446 48.5887 39.7499 47.9792 39.7499H36.9375Z" fill="#01C2FF"/>
</g>
</svg>
