<svg width="20" height="20" viewBox="0 0 20 20" fill="none" xmlns="http://www.w3.org/2000/svg">
<path d="M17.3256 2.67432H2.67442C1.86046 2.67432 1.04651 3.48827 1.04651 4.30222V15.6976C1.04651 16.5929 1.77907 17.3255 2.67442 17.3255H17.3256C18.1395 17.3255 18.9535 16.5115 18.9535 15.6976V4.30222C18.9535 3.48827 18.1395 2.67432 17.3256 2.67432ZM17.3256 15.6325C17.3093 15.6569 17.2767 15.6813 17.2605 15.6976H2.67442V4.36734L2.73953 4.30222H17.2523C17.2767 4.3185 17.3012 4.35106 17.3174 4.36734V15.6325H17.3256ZM9.18604 12.8569L7.15116 10.4069L4.30232 14.0697H15.6977L12.0349 9.18594L9.18604 12.8569Z" fill="black"/>
</svg>
