<svg width="54" height="53" viewBox="0 0 54 53" fill="none" xmlns="http://www.w3.org/2000/svg">
<g opacity="0.55" clip-path="url(#clip0_149_522)">
<path d="M22.5833 4.41675V8.83341H29.2083V13.2501H33.625V8.83341H40.25V4.41675H22.5833ZM22.5833 17.6667C21.9977 17.6669 21.4361 17.8996 21.022 18.3137L17.2523 22.0834H11.5417C10.956 22.0835 10.3943 22.3162 9.9802 22.7303C9.56607 23.1444 9.33339 23.7061 9.33333 24.2917V37.5417C9.33339 38.1274 9.56607 38.6891 9.9802 39.1032C10.3943 39.5173 10.956 39.75 11.5417 39.7501H15.2898L21.3584 43.7958C21.7211 44.0377 22.1474 44.1667 22.5833 44.1667H33.625C34.1023 44.167 34.5669 44.0127 34.9491 43.7268L43.7825 37.1018C44.0571 36.896 44.28 36.629 44.4335 36.3221C44.587 36.0151 44.6668 35.6766 44.6667 35.3334V19.8751C44.6666 19.2894 44.4339 18.7277 44.0198 18.3136C43.6057 17.8995 43.044 17.6668 42.4583 17.6667H22.5833ZM49.0833 19.8751V33.1251H53.5V19.8751H49.0833ZM23.4977 22.0834H29.2083H40.25V34.2292L32.8875 39.7501H27H23.2519L17.1833 35.7043C16.8205 35.4625 16.3943 35.3334 15.9583 35.3334H13.75V26.5001H18.1667C18.7523 26.5 19.3139 26.2673 19.728 25.8531L23.4977 22.0834ZM27 39.7501L33.625 28.7084H29.2083V22.0834L22.5833 33.1251H27V39.7501ZM0.5 24.2917V35.3334H4.91667V24.2917H0.5Z" fill="#01C2FF"/>
</g>
<defs>
<clipPath id="clip0_149_522">
<rect width="53" height="53" fill="white" transform="translate(0.5)"/>
</clipPath>
</defs>
</svg>
