<svg width="54" height="53" viewBox="0 0 54 53" fill="none" xmlns="http://www.w3.org/2000/svg">
<g opacity="0.55" clip-path="url(#clip0_149_528)">
<path d="M10.5841 8.83325C9.03726 8.83325 7.59556 9.64916 6.80151 10.9726L0.814861 20.9446C0.608455 21.2885 0.499607 21.6821 0.500001 22.0833V37.5416C0.500001 39.395 1.68216 40.9944 3.3208 41.6434C4.50039 44.4138 7.25595 46.3749 10.4375 46.3749C13.4835 46.3749 16.0868 44.5426 17.3429 41.9583H32.2405C33.4965 44.5426 36.0998 46.3749 39.1458 46.3749C42.4236 46.3749 45.2286 44.2838 46.3445 41.3803L50.071 39.517C50.4379 39.3335 50.7463 39.0516 50.9619 38.7027C51.1775 38.3538 51.2917 37.9517 51.2917 37.5416V26.1031C51.2917 24.014 49.7887 22.1813 47.7376 21.7727H47.7333L39.4305 20.1078L33.9485 10.9726C33.1544 9.64916 31.7127 8.83325 30.1659 8.83325H10.5841ZM10.5841 13.2499H19.012L13.9829 23.3039C13.8146 23.6406 13.7351 24.0147 13.7521 24.3908C13.769 24.7668 13.8818 25.1323 14.0797 25.4525C14.2777 25.7727 14.5541 26.0371 14.8829 26.2204C15.2117 26.4037 15.5819 26.4999 15.9583 26.4999H25.857L21.1255 37.5416H17.9424C17.3804 33.8373 14.289 30.9166 10.4375 30.9166C8.28041 30.9166 6.3241 31.8232 4.91667 33.2673V22.6957L10.5841 13.2499ZM23.9463 13.2499H30.1659L36.1482 23.2219C36.3065 23.485 36.5179 23.7121 36.7689 23.8888C37.0199 24.0656 37.305 24.1881 37.606 24.2485L46.8707 26.1031H46.875V36.1786L46.4868 36.3727C45.5022 33.2344 42.5923 30.9166 39.1458 30.9166C35.2943 30.9166 32.2029 33.8373 31.6409 37.5416H25.9347L31.2398 25.1628C31.3841 24.8267 31.4426 24.4601 31.4101 24.0958C31.3777 23.7315 31.2553 23.381 31.0539 23.0757C30.8525 22.7704 30.5784 22.5199 30.2563 22.3467C29.9342 22.1734 29.5741 22.0829 29.2083 22.0833H19.5296L23.9463 13.2499ZM10.4375 35.3333C12.286 35.3333 13.75 36.7972 13.75 38.6458C13.75 40.4943 12.286 41.9583 10.4375 41.9583C8.58899 41.9583 7.125 40.4943 7.125 38.6458C7.125 36.7972 8.58899 35.3333 10.4375 35.3333ZM39.1458 35.3333C40.9943 35.3333 42.4583 36.7972 42.4583 38.6458C42.4583 40.4943 40.9943 41.9583 39.1458 41.9583C37.2973 41.9583 35.8333 40.4943 35.8333 38.6458C35.8333 36.7972 37.2973 35.3333 39.1458 35.3333Z" fill="#01C2FF"/>
</g>
<defs>
<clipPath id="clip0_149_528">
<rect width="53" height="53" fill="white" transform="translate(0.5)"/>
</clipPath>
</defs>
</svg>
