<svg width="20" height="17" viewBox="0 0 20 17" fill="none" xmlns="http://www.w3.org/2000/svg">
<path d="M18 0V1H8C3.59356 1 0 4.59356 0 9C0 11.388 1.06033 13.5321 2.72852 15H1V17H8H15V15H13.2715C14.9397 13.5321 16 11.388 16 9C16 8.30923 15.9036 7.64122 15.7383 7H18V8H20V0H18ZM8 3H18V5H8C5.80271 5 4 6.80271 4 9C4 11.1973 5.80271 13 8 13C10.1973 13 12 11.1973 12 9C12 8.26933 11.7864 7.59163 11.4395 7H13.6543C13.8756 7.62494 14 8.29581 14 9C14 12.3256 11.3256 15 8 15C4.67444 15 2 12.3256 2 9C2 5.67444 4.67444 3 8 3ZM8 7C9.11641 7 10 7.88359 10 9C10 10.1164 9.11641 11 8 11C6.88359 11 6 10.1164 6 9C6 7.88359 6.88359 7 8 7Z" fill="#757575"/>
</svg>
